<svg width="28" height="28" viewBox="0 0 28 28" fill="none" xmlns="http://www.w3.org/2000/svg">
<path fill-rule="evenodd" clip-rule="evenodd" d="M14 1.45825C10.9394 1.45825 8.45833 3.93934 8.45833 6.99992C8.45833 10.0605 10.9394 12.5416 14 12.5416C17.0606 12.5416 19.5417 10.0605 19.5417 6.99992C19.5417 3.93934 17.0606 1.45825 14 1.45825ZM10.2083 6.99992C10.2083 4.90584 11.9059 3.20825 14 3.20825C16.0941 3.20825 17.7917 4.90584 17.7917 6.99992C17.7917 9.094 16.0941 10.7916 14 10.7916C11.9059 10.7916 10.2083 9.094 10.2083 6.99992Z" fill="#737373"/>
<path fill-rule="evenodd" clip-rule="evenodd" d="M10.5 14.2916C7.43942 14.2916 4.95833 16.7727 4.95833 19.8333C4.95833 22.8938 7.43942 25.3749 10.5 25.3749H17.5C20.5606 25.3749 23.0417 22.8938 23.0417 19.8333C23.0417 16.7727 20.5606 14.2916 17.5 14.2916H10.5ZM6.70833 19.8333C6.70833 17.7392 8.40592 16.0416 10.5 16.0416H17.5C19.5941 16.0416 21.2917 17.7392 21.2917 19.8333C21.2917 21.9273 19.5941 23.6249 17.5 23.6249H10.5C8.40592 23.6249 6.70833 21.9273 6.70833 19.8333Z" fill="#737373"/>
</svg>
