<svg width="18" height="18" viewBox="0 0 18 18" fill="none" xmlns="http://www.w3.org/2000/svg">
<path d="M7.82668 1.21993C8.16827 0.398635 9.33173 0.398636 9.67332 1.21993L11.3588 5.27242C11.5029 5.61866 11.8285 5.85522 12.2023 5.88519L16.5773 6.23593C17.4639 6.30702 17.8234 7.41352 17.1479 7.99219L13.8146 10.8475C13.5298 11.0915 13.4054 11.4742 13.4925 11.839L14.5108 16.1083C14.7172 16.9735 13.776 17.6573 13.0169 17.1937L9.27125 14.9059C8.95124 14.7104 8.54876 14.7104 8.22875 14.9059L4.48313 17.1937C3.72403 17.6573 2.78278 16.9735 2.98917 16.1083L4.00754 11.839C4.09455 11.4742 3.97018 11.0915 3.68539 10.8475L0.352098 7.99219C-0.323439 7.41352 0.0360872 6.30702 0.922741 6.23593L5.29775 5.88519C5.67154 5.85522 5.99715 5.61866 6.14115 5.27242L7.82668 1.21993Z" fill="#FFF707"/>
</svg>
